<?xml version="1.0" standalone="no"?><!DOCTYPE svg PUBLIC "-//W3C//DTD SVG 1.1//EN" "http://www.w3.org/Graphics/SVG/1.1/DTD/svg11.dtd"><svg t="1579184089663" class="icon" viewBox="0 0 1024 1024" version="1.1" xmlns="http://www.w3.org/2000/svg" p-id="10207" xmlns:xlink="http://www.w3.org/1999/xlink" width="200" height="200"><defs><style type="text/css"></style></defs><path d="M676.297143 0H145.609143C130.834286 0 118.857143 11.977143 118.857143 35.218286V1005.714286c0 6.308571 11.977143 18.285714 26.752 18.285714h732.781714c14.774857 0 26.752-11.977143 26.752-18.285714V237.312c0-12.726857-1.700571-16.822857-4.699428-19.84L687.670857 4.699429A16.164571 16.164571 0 0 0 676.297143 0z" fill="#E9E9E0" p-id="10208"></path><path d="M685.714286 2.761143V219.428571h216.667428z" fill="#D9D7CA" p-id="10209"></path><path d="M346.166857 263.881143m-83.547428 0a83.547429 83.547429 0 1 0 167.094857 0 83.547429 83.547429 0 1 0-167.094857 0Z" fill="#F3D55B" p-id="10210"></path><path d="M118.857143 713.142857h786.285714V512l-182.857143-173.714286L530.285714 548.571429l-100.260571-100.260572z" fill="#26B99A" p-id="10211"></path><path d="M878.390857 1024H145.609143A26.752 26.752 0 0 1 118.857143 997.248V713.142857h786.285714v284.105143c0 14.774857-11.977143 26.752-26.752 26.752z" fill="#14A085" p-id="10212"></path><path d="M391.789714 779.885714v143.506286c0 8.667429-1.590857 15.963429-4.754285 21.869714a39.168 39.168 0 0 1-12.745143 14.244572 50.797714 50.797714 0 0 1-18.377143 7.497143 105.691429 105.691429 0 0 1-21.376 2.139428c-3.675429 0-7.972571-0.384-12.873143-1.133714-4.918857-0.749714-10.002286-1.901714-15.250286-3.492572s-10.294857-3.382857-15.122285-5.376a55.259429 55.259429 0 0 1-12.251429-6.747428l12.745143-20.242286c1.664 1.152 4.041143 2.377143 7.131428 3.620572 3.072 1.243429 6.454857 2.413714 10.130286 3.492571 3.657143 1.097143 7.497143 2.029714 11.501714 2.870857s7.753143 1.243429 11.245715 1.243429c8.832 0 15.872-1.718857 21.12-5.12s8.027429-9.216 8.374857-17.371429V779.885714h30.500571zM466.541714 967.899429h-30.006857V783.634286h52.992c7.826286 0 15.579429 1.243429 23.241143 3.748571 7.661714 2.505143 14.537143 6.253714 20.626286 11.245714 6.089143 4.992 11.008 11.044571 14.756571 18.121143s5.632 15.030857 5.632 23.881143c0 9.344-1.590857 17.792-4.754286 25.380572a53.028571 53.028571 0 0 1-13.257142 19.126857c-5.668571 5.156571-12.507429 9.161143-20.498286 11.995428s-16.841143 4.242286-26.496 4.242286h-22.253714v66.523429z m0-161.499429v72.996571h27.501715c3.657143 0 7.277714-0.621714 10.88-1.883428 3.584-1.243429 6.875429-3.291429 9.874285-6.125714s5.412571-6.784 7.241143-11.867429c1.828571-5.083429 2.742857-11.373714 2.742857-18.870857 0-2.998857-0.420571-6.473143-1.243428-10.368a29.933714 29.933714 0 0 0-5.12-11.245714 30.299429 30.299429 0 0 0-10.88-8.996572c-4.681143-2.432-10.843429-3.638857-18.505143-3.638857h-22.491429zM722.285714 872.886857v71.241143c-3.84 4.845714-8.118857 8.777143-12.873143 11.867429s-9.746286 5.632-14.994285 7.625142-10.660571 3.419429-16.256 4.242286c-5.595429 0.877714-11.117714 1.28-16.621715 1.28-11.008 0-21.12-1.993143-30.372571-5.997714s-17.334857-9.910857-24.246857-17.755429c-6.912-7.844571-12.342857-17.664-16.256-29.494857-3.913143-11.830857-5.869714-25.508571-5.869714-40.996571s1.956571-29.129143 5.869714-40.868572c3.913143-11.757714 9.325714-21.540571 16.256-29.366857a69.12 69.12 0 0 1 24.374857-17.883428 74.404571 74.404571 0 0 1 30.244571-6.125715c10.002286 0 19.328 1.664 27.995429 4.992 8.667429 3.346286 16.402286 8.338286 23.241143 14.994286l-20.754286 18.505143a35.675429 35.675429 0 0 0-13.750857-10.496 41.179429 41.179429 0 0 0-16-3.254857c-6.162286 0-12.050286 1.152-17.627429 3.492571a37.76 37.76 0 0 0-14.994285 11.867429c-4.425143 5.595429-7.881143 12.781714-10.368 21.632s-3.84 19.657143-4.004572 32.493714c0.164571 12.507429 1.462857 23.332571 3.876572 32.493714 2.413714 9.161143 5.741714 16.658286 10.002285 22.491429s9.088 10.166857 14.500572 13.001143c5.412571 2.834286 11.117714 4.242286 17.133714 4.242285 1.828571 0 4.278857-0.128 7.369143-0.384a89.782857 89.782857 0 0 0 9.252571-1.243428 60.16 60.16 0 0 0 8.868572-2.377143 12.708571 12.708571 0 0 0 6.253714-4.242286v-45.494857h-31.250286v-20.498286H722.285714z" fill="#FFFFFF" p-id="10213"></path></svg>