<?xml version="1.0" standalone="no"?><!DOCTYPE svg PUBLIC "-//W3C//DTD SVG 1.1//EN" "http://www.w3.org/Graphics/SVG/1.1/DTD/svg11.dtd"><svg t="1577624353461" class="icon" viewBox="0 0 1024 1024" version="1.1" xmlns="http://www.w3.org/2000/svg" p-id="3112" xmlns:xlink="http://www.w3.org/1999/xlink" width="200" height="200"><defs><style type="text/css"></style></defs><path d="M512 0a512 512 0 1 0 512 512 512 512 0 0 0-512-512z m206.506667 601.6H476.16L471.04 597.333333h-17.92c-5.973333 0-9.386667 0-12.8-5.973333s0-6.826667-5.12-10.24a39.253333 39.253333 0 0 1-8.533333-23.04V220.16A45.226667 45.226667 0 0 1 469.333333 170.666667a45.226667 45.226667 0 0 1 42.666667 47.786666V512h206.506667a46.933333 46.933333 0 0 1 49.493333 46.08 46.933333 46.933333 0 0 1-49.493333 43.52z" fill="#d0c9d6" p-id="3113"></path></svg>