<?xml version="1.0" standalone="no"?><!DOCTYPE svg PUBLIC "-//W3C//DTD SVG 1.1//EN" "http://www.w3.org/Graphics/SVG/1.1/DTD/svg11.dtd"><svg t="1560952743644" class="icon" style="" viewBox="0 0 1024 1024" version="1.1" xmlns="http://www.w3.org/2000/svg" p-id="31816" xmlns:xlink="http://www.w3.org/1999/xlink" width="200" height="200"><defs><style type="text/css"></style></defs><path d="M681.814186 266.485514l87.976024-87.976023c8.183816-7.672328 8.183816-20.971029 0-29.154846-7.672328-8.183816-20.971029-8.183816-29.154845 0l-86.953047 87.464536c-40.919081-38.361638-92.067932-68.027972-149.866134-83.372628l-59.844156-15.856143c-56.775225-15.344655-114.573427-15.344655-167.768232-3.58042l-32.223776-117.642358C241.422577 5.114885 230.16983-1.022977 218.917083 1.534466S201.014985 15.344655 204.083916 26.597403l31.712288 117.642357C128.895105 181.578422 42.453546 269.042957 10.741259 386.173826l-5.114885 20.459541 741.658341 198.969031 5.626374-19.948052c30.689311-116.107892 0.511489-233.75025-71.096903-319.168832zM242.957043 363.156843c-27.62038-7.160839-43.988012-35.804196-36.827173-63.424575s35.804196-43.988012 63.424576-36.827173c27.62038 7.160839 43.988012 35.804196 36.827172 63.424575-7.160839 27.62038-35.804196 43.988012-63.424575 36.827173z m320.703297 85.93007c-27.62038-7.672328-43.988012-35.804196-36.827173-63.424575s35.804196-43.988012 63.424575-36.827173c27.62038 7.672328 43.988012 35.804196 36.827173 63.424575s-35.804196 43.988012-63.424575 36.827173zM0.511489 854.185814c0 93.090909 76.211788 169.814186 169.814185 169.814186h467.5005l100.763237-382.593407L0.511489 447.552448V854.185814zM861.858142 673.63037c-45.522478-11.764236-92.067932 13.81019-103.320679 57.798201l-76.723277 292.571429h176.975025l65.470529-249.094905c11.252747-43.988012-16.367632-88.999001-62.401598-101.274725z" fill="#75C353" p-id="31817"></path></svg>