<?xml version="1.0" standalone="no"?><!DOCTYPE svg PUBLIC "-//W3C//DTD SVG 1.1//EN" "http://www.w3.org/Graphics/SVG/1.1/DTD/svg11.dtd"><svg t="1560952934561" class="icon" style="" viewBox="0 0 1024 1024" version="1.1" xmlns="http://www.w3.org/2000/svg" p-id="32721" xmlns:xlink="http://www.w3.org/1999/xlink" width="200" height="200"><defs><style type="text/css"></style></defs><path d="M896 729.6c0 4.266667-21.333333 68.266667-64 132.266667-38.4 55.466667-81.066667 115.2-140.8 115.2-64 0-81.066667-38.4-153.6-38.4-72.533333 0-93.866667 34.133333-153.6 38.4-59.733333 4.266667-106.666667-59.733333-145.066667-119.466667-81.066667-115.2-140.8-324.266667-59.733333-469.333333 38.4-72.533333 115.2-115.2 192-115.2 59.733333 0 115.2 38.4 153.6 38.4 38.4 0 106.666667-51.2 179.2-42.666667 29.866667 0 115.2 12.8 170.666667 93.866667-4.266667 4.266667-102.4 59.733333-102.4 179.2 0 140.8 123.733333 187.733333 123.733333 187.733333M652.8 196.266667c34.133333-38.4 55.466667-93.866667 46.933333-149.333334-46.933333 0-102.4 29.866667-136.533333 72.533334-29.866667 34.133333-55.466667 89.6-46.933333 145.066666 51.2 0 106.666667-29.866667 136.533333-68.266666" p-id="32722" fill="#fdfdfd"></path></svg>