<?xml version="1.0" standalone="no"?><!DOCTYPE svg PUBLIC "-//W3C//DTD SVG 1.1//EN" "http://www.w3.org/Graphics/SVG/1.1/DTD/svg11.dtd"><svg t="1561213422161" class="icon" viewBox="0 0 1024 1024" version="1.1" xmlns="http://www.w3.org/2000/svg" p-id="22713" xmlns:xlink="http://www.w3.org/1999/xlink" width="200" height="200"><defs><style type="text/css"></style></defs><path d="M512 0C229.2 0 0 229.2 0 512s229.2 512 512 512 512-229.2 512-512C1023.7 229.4 794.6 0.3 512 0zM68.3 512c-0.1-102.9 35.7-202.7 101.3-282 7.6 8.5 12.6 19 14.6 30.2 5.4 27.9-14.2 119.5 10.6 139.7 38 30.7 96.7 4.9 126.9 23.5 30.4 18.6 107 106.4 136.7 88.6 50-29.9-35.7-148-39.4-179.9-5.5-47.3 24.4-102.8 78.9-82.6 34.1 12.7 41.3 58.2 73.3 60.1 31.9 1.9 17.1-98.4 17.1-114.6-0.3-45.3 44.4-77.4 91.7-93.7 226.7 92.4 335.5 351 243.2 577.7-5.4 13.3-11.5 26.3-18.1 39-3.7-39.7-13.3-84-37.5-97.5-47-26.3-99.2-1.2-137.1-43.2-15.7-17.4 4-95.1-43.1-113.7-91.8-36.3-166.1 38.6-188.6 98.6-9.8 27.5-12.6 57-8.2 85.9 0.9 96.4-48.9 96.4-30 135.1 20.7 42.3 94.8 27.3 80.4 116.1-2 13.1-8.3 25.1-18 34.1-8.6 5.7-17.4 11.2-26.3 16.4-5 2-10 3.6-15.2 4.9C248.7 938.2 68.5 745 68.3 512z" p-id="22714" fill="#fdfdfd"></path></svg>