<?xml version="1.0" standalone="no"?><!DOCTYPE svg PUBLIC "-//W3C//DTD SVG 1.1//EN" "http://www.w3.org/Graphics/SVG/1.1/DTD/svg11.dtd"><svg t="1560952637568" class="icon" style="" viewBox="0 0 1024 1024" version="1.1" xmlns="http://www.w3.org/2000/svg" p-id="30367" xmlns:xlink="http://www.w3.org/1999/xlink" width="200" height="200"><defs><style type="text/css"></style></defs><path d="M501.547051 0.005h14.795928c10.553948 1.367993 21.087897 3.734982 31.664845 3.939981 59.070712 1.136994 115.149438 15.454925 168.06018 40.659801 114.394441 54.488734 196.464041 139.35932 238.642834 260.330729 30.950849 88.773567 27.164867 181.006116 26.952869 272.913667-0.038 17.907913-10.084951 18.832908-24.033883 18.812909-193.140057-0.336998-386.280114-0.298999-579.415171-0.351999-12.843937-0.005-25.685875 0-37.666816 0-7.012966 33.479837 12.29894 84.304588 27.161868 107.935473 44.483783 70.726655 114.372442 96.870527 192.539059 105.839484 106.662479 12.24394 209.034979-2.417988 304.975511-53.34374 8.553958-4.541978 19.005907-5.504973 30.584851-8.683958 0 63.55969-0.619997 122.523402 0.379998 181.464114 0.293999 17.392915-5.913971 26.283872-21.346896 33.773835C808.768551 995.37314 738.698893 1015.000044 666.289247 1020.559017c-101.558504 7.798962-201.965014 5.827972-296.776551-44.200784-96.746528-51.046751-164.377197-127.225379-194.291052-229.292881-50.975751-173.937151-3.527983-350.25229 169.934171-462.037744 14.23393-9.175955 29.929854-16.082921 44.94578-24.044882-27.259867 48.746762-51.052751 95.997531-53.509739 152.373256h362.223232c8.891957-82.459597-28.865859-176.941136-123.136399-205.544997-47.610768-14.447929-96.089531-13.339935-145.705288-6.509968-110.65646 15.229926-206.426992 60.425705-287.922595 135.558338-34.229833 31.557846-64.988683 66.880673-99.965511 103.233496 1.439993-12.850937 0.729996-23.644885 4.01998-33.036839 17.800913-50.816752 32.255843-103.421495 55.878727-151.46626 63.39969-128.94937 168.834176-207.470987 307.964496-240.655825C439.960352 7.774962 470.9882 4.869976 501.548051 0.005z" fill="#1296DB" p-id="30368"></path></svg>