<?xml version="1.0" standalone="no"?><!DOCTYPE svg PUBLIC "-//W3C//DTD SVG 1.1//EN" "http://www.w3.org/Graphics/SVG/1.1/DTD/svg11.dtd"><svg t="1561212468267" class="icon" viewBox="0 0 1024 1024" version="1.1" xmlns="http://www.w3.org/2000/svg" p-id="12884" xmlns:xlink="http://www.w3.org/1999/xlink" width="200" height="200"><defs><style type="text/css"></style></defs><path d="M512 87.04c-234.496 0-424.96 190.464-424.96 424.96s190.464 424.96 424.96 424.96 424.96-190.464 424.96-424.96-190.464-424.96-424.96-424.96zM420.352 666.112c-13.824 9.216-63.488 41.472-95.232 27.136-31.744-14.336-49.152-49.664-49.152-49.664l180.224-4.608c0.512-0.512-23.04 17.408-35.84 27.136zM316.416 624.64c-18.432-3.072-58.88-13.312-79.872-48.128-20.992-34.816-10.752-80.896-8.192-81.92 2.56-0.512 69.12 36.352 101.376 52.736 32.256 16.384 128.512 74.24 129.536 76.8 1.024 2.56-121.856 3.584-142.848 0.512z m156.16-20.992c-2.048 5.12-107.008-52.736-151.552-83.968-44.032-29.184-59.904-53.76-56.32-90.624 3.584-36.864 40.96-74.24 46.592-75.264 5.12-0.512 50.688 58.368 85.504 113.664 34.816 55.296 77.824 131.072 75.776 136.192z m25.088-17.408c0 2.56-3.584 3.584-6.144 1.024-2.56-2.56-76.288-119.808-90.112-149.504-13.824-29.696-35.84-88.064-6.656-125.952 29.184-37.888 75.264-35.84 75.264-35.84 3.072 4.608 22.528 57.344 29.184 98.816 6.656 40.96-1.536 208.896-1.536 211.456z m28.672 0c0-2.56-8.192-170.496-2.048-211.968 6.656-41.472 26.112-94.208 29.184-98.816 0 0 46.08-2.048 75.264 35.84 29.184 37.888 7.168 95.744-6.656 125.952-13.824 29.696-87.552 146.944-90.112 149.504-2.048 2.56-5.12 1.536-5.632-0.512z m25.088 17.408c-2.048-5.12 40.96-80.896 75.776-136.192 34.816-55.296 80.384-114.176 85.504-113.664 5.12 0.512 43.008 38.4 46.592 75.264 3.584 36.864-12.288 61.44-56.32 90.624-44.032 31.232-149.504 89.088-151.552 83.968z m147.456 89.6c-31.744 14.336-81.408-17.92-95.232-27.136-12.8-9.728-36.352-27.648-36.352-27.648l180.224 4.608c0 0.512-16.896 35.84-48.64 50.176z m88.576-116.736c-20.992 34.816-61.44 45.568-79.872 48.128-20.992 3.072-143.872 1.536-142.848-1.024 0.512-2.048 97.28-60.416 129.536-76.8 32.256-16.384 98.816-53.248 101.376-52.736 2.56 1.536 12.288 47.616-8.192 82.432z" fill="#EE525B" p-id="12885"></path></svg>