<?xml version="1.0" standalone="no"?><!DOCTYPE svg PUBLIC "-//W3C//DTD SVG 1.1//EN" "http://www.w3.org/Graphics/SVG/1.1/DTD/svg11.dtd"><svg t="1561212639578" class="icon" viewBox="0 0 1024 1024" version="1.1" xmlns="http://www.w3.org/2000/svg" p-id="15002" xmlns:xlink="http://www.w3.org/1999/xlink" width="200" height="200"><defs><style type="text/css"></style></defs><path d="M832.7 464.3c-30.6-16.1-62.7-16.1-94.1 0-24.9 12.1-24.9 35.4-0.8 49.8 14.5 8.9 31.4 11.3 47.4 12.1 16.9-0.8 33.8-2.4 48.2-11.3 24.2-14.5 25-37.7-0.7-50.6zM243.3 465.1c-14.5-8.9-31.4-12.9-49-12.1-16.9-0.8-33 2.4-48.2 11.3-23.3 13.7-23.3 34.6-1.6 49 25.8 16.9 74.7 16.9 99.7 0 20.9-14.5 20.9-34.5-0.9-48.2z" fill="#02925F" p-id="15003"></path><path d="M511.3 5.9C230.6 5.9 3 232.9 3 512.9s227.6 507 508.3 507 508.3-227 508.3-507-227.5-507-508.3-507zM274.6 518c-20.9 11.3-43.5 14.5-67.5 15.3-24.1-1.6-48.2-4-69.9-17.7-25-15.3-25-37.8 0-53.8 12.9-8.9 28.2-13.7 44.2-15.3 31.4-3.2 63.5-2.4 92.5 12.9 12.1 6.5 22.6 14.5 24 28.1 0 16-11.2 24.1-23.3 30.5z m212.4-7.9c-9.7 8.1-20.1 12.9-32.2 16.1-37.9 10.5-74.8 9.7-110.2-6.4-8.1-3.3-9.7-0.8-9.7 6.4v34.6c0 8.1-3.3 12.1-11.3 11.3h-8c-7.3 0.8-10.5-2.5-10.5-10.5v-53.8c0-16.9 0.8-34.6 0-51.4-0.8-9.7 2.4-12.9 12.1-12.9 17.7 0 17.7-0.8 17.7 17.7v34.6c0 8 3.3 13.7 9.7 16.9 33.8 17.7 67.5 18.5 100.5 0 21.7-12.1 21.7-33.8 0-47.4-20.9-12.9-44.2-13.7-67.5-11.3-4.1 0.8-10.5 4-11.3-0.8-0.8-4 6.5-4 10.5-4.8 29-4.9 57-4.1 85.2 5.6 9.6 3.2 19.3 8.1 25.8 14.5 13.7 12.7 13.7 28.7-0.8 41.6z m188.1 9.6c-41.1 18.5-83.6 18.5-125.5 1.6-10.5-4.1-10.5-4.9-10.5 6.4 0 10.5-0.8 21.7 0 32.2 0 8.9-3.2 12.1-12.1 12.1-19.3 0-19.3 0-19.3-18.5v-46.6c0-16.9 0.8-34.6 0-51.4-0.8-8.9 2.4-12.9 11.3-12.1h8c8.9-0.8 11.3 3.2 11.3 12.1v40.2c-0.8 8 2.5 12.9 8.9 16.9 25.7 17.7 76.3 16.9 101.3-0.8 19.3-13.7 18.5-33-0.8-45.8-20.9-14.5-44.9-15.3-69.9-12.1-3.3 0.8-9.7 4-10.5-0.8-0.8-4 5.7-4 9.7-4.8 33.8-4.8 66.7-4.8 98.1 10.5 12.8 6.5 24.9 14.5 25 29.8 0.8 16.6-12.1 25.5-25 31.1z m187.3 1.6c-41.9 18.5-84.4 18.5-127.1 0-12.9-5.6-25.8-13.7-25.8-30.6 0-17.7 12.9-25.8 25.8-32.2 16.9-8.9 37.8-12.9 66.7-12.9 19.3-0.8 41.1 3.2 61.1 12.9 12.9 6.5 25.8 14.5 25 32.2 0.1 16.1-12 25-25.7 30.6z" fill="#02925F" p-id="15004"></path></svg>