<?xml version="1.0" standalone="no"?><!DOCTYPE svg PUBLIC "-//W3C//DTD SVG 1.1//EN" "http://www.w3.org/Graphics/SVG/1.1/DTD/svg11.dtd"><svg t="1560953911811" class="icon" style="" viewBox="0 0 1024 1024" version="1.1" xmlns="http://www.w3.org/2000/svg" p-id="34814" xmlns:xlink="http://www.w3.org/1999/xlink" width="200" height="200"><defs><style type="text/css"></style></defs><path d="M829.952 690.9952c-4.7104-57.6512-34.9184-121.9584-47.5136-154.112l-32.256-83.0464c-1.024-34.6112 9.216-113.9712-44.4416-213.504-53.76-99.5328-161.4848-108.544-181.4528-109.568-19.8656-0.8192-144.4864-1.8432-205.7216 106.3936-61.1328 108.3392-44.7488 216.7808-44.7488 216.7808l-34.0992 83.7632s-15.9744 38.1952-29.696 84.5824c-13.9264 46.4896-27.4432 119.6032-13.9264 134.3488 13.9264 14.9504 63.6928-67.9936 68.3008-75.4688 0 0 3.584 39.5264 12.9024 60.2112 7.68 16.4864 25.8048 57.856 62.464 90.2144-17.6128 5.7344-60.0064 21.0944-66.1504 36.7616-7.7824 20.1728 6.0416 22.4256 30.0032 23.7568 23.7568 1.3312 138.24 4.4032 193.024-3.1744 0.512-0.2048 1.2288-0.2048 1.7408-0.3072 5.4272 0.2048 10.5472 0.3072 15.0528 0.3072 3.072 0 6.5536 0 10.5472-0.2048 0.512 0 0.7168 0.2048 1.2288 0.2048 54.784 7.7824 169.2672 4.7104 193.024 3.1744 23.7568-1.3312 37.7856-3.6864 30.0032-23.7568-6.2464-16.0768-49.8688-31.5392-66.9696-36.9664 5.5296-4.8128 10.752-9.9328 15.5648-15.4624 61.7472-67.9936 56.6272-110.6944 59.1872-135.3728 0 0 52.0192 75.0592 63.1808 77.5168 11.776 2.4576 15.2576-9.4208 10.752-67.072z m0 0" fill="#FFFFFF" p-id="34815"></path><path d="M371.4048 853.2992c-11.1616-6.2464-21.7088-13.6192-31.232-22.2208-17.6128 5.8368-60.0064 21.0944-66.1504 36.7616-7.7824 20.1728 6.0416 22.4256 30.0032 23.7568 23.7568 1.3312 138.24 4.4032 193.024-3.1744 0.512-0.2048 1.2288-0.2048 1.7408-0.3072-44.6464-0.8192-88.4736-12.8-127.3856-34.816z m310.0672-22.2208c-54.272 48.2304-121.1392 56.32-157.184 57.4464 0.512 0 0.7168 0.2048 1.2288 0.2048 54.784 7.7824 169.2672 4.7104 193.024 3.1744 23.7568-1.3312 37.7856-3.6864 30.0032-23.7568-6.3488-16.2816-49.9712-31.6416-67.072-37.0688z m0 0" fill="#E5A627" p-id="34816"></path><path d="M782.336 536.6784l-32.256-83.1488s-221.2864 70.0416-476.16 0l-34.0992 83.7632s46.7968 16.5888 121.9584 28.4672v112.64s59.6992 8.192 104.6528 2.56V576.7168c91.2384 5.0176 201.9328-2.2528 315.904-40.0384z m0 0" fill="#CE2D22" p-id="34817"></path><path d="M705.7408 240.2304c-53.5552-99.328-161.28-108.3392-181.248-109.3632-19.8656-1.024-144.4864-2.048-205.7216 106.2912-61.2352 108.4416-44.7488 216.7808-44.7488 216.7808 255.8976 71.3728 476.16 0 476.16 0-1.1264-34.816 9.3184-114.3808-44.4416-213.7088zM448.9216 347.8528c-23.2448 0-41.8816-26.9312-41.8816-60.2112 0-33.1776 18.8416-60.2112 41.8816-60.2112 23.2448 0 41.8816 26.9312 41.8816 60.2112s-18.6368 60.2112-41.8816 60.2112z m125.0304 0c-23.2448 0-41.8816-26.9312-41.8816-60.2112 0-33.1776 18.8416-60.2112 41.8816-60.2112 23.2448 0 41.8816 26.9312 41.8816 60.2112s-18.8416 60.2112-41.8816 60.2112z m0 0" fill="#070001" p-id="34818"></path><path d="M443.1872 292.5568c0 13.2096 8.192 24.064 18.1248 24.064 10.0352 0 18.1248-10.6496 18.1248-24.064s-8.192-24.064-18.1248-24.064c-9.9328 0.1024-18.1248 10.8544-18.1248 24.064zM573.952 277.504c12.0832 0 28.672 6.2464 25.088 16.0768-2.8672 7.7824-17.1008-2.56-22.2208-3.3792-6.4512-0.8192-15.9744-1.536-23.7568 7.9872-5.2224 6.2464-13.4144 5.5296-10.5472-3.072 3.2768-9.6256 15.4624-17.6128 31.4368-17.6128z m0 0" fill="#070001" p-id="34819"></path><path d="M366.3872 398.4384c0 10.1376 75.5712 48.0256 144.7936 47.5136 69.2224-0.512 146.3296-37.9904 146.3296-48.9472 0-10.8544-55.5008-30.208-147.7632-30.208-92.16-0.1024-143.36 16.6912-143.36 31.6416z m0 0" fill="#E5A627" p-id="34820"></path><path d="M829.952 690.9952c-4.7104-57.6512-34.9184-121.9584-47.5136-154.112-29.7984 9.8304-59.6992 17.6128-88.6784 23.7568 2.56 12.9024 5.8368 41.0624 4.608 94.8224-2.048 80.1792-28.16 145.5104-92.4672 183.296-64.3072 37.7856-177.2544 29.4912-226.5088-32.256-46.4896-57.9584-61.5424-101.2736-50.3808-246.272-55.9104-11.0592-89.1904-22.7328-89.1904-22.7328s-15.9744 38.1952-29.696 84.5824c-13.9264 46.4896-27.4432 119.6032-13.9264 134.3488 13.9264 14.9504 63.7952-67.9936 68.3008-75.4688 0 0 3.584 39.5264 12.9024 60.2112 9.3184 20.6848 35.4304 80.1792 93.7984 112.4352C429.4656 885.76 479.0272 888.832 513.7408 888.832c34.7136 0 121.6512-5.12 183.296-73.1136s56.6272-110.6944 59.1872-135.3728c0 0 52.0192 75.0592 63.1808 77.5168 11.5712 2.6624 15.0528-9.216 10.5472-66.8672z m0 0" fill="#070001" p-id="34821"></path></svg>