<?xml version="1.0" standalone="no"?><!DOCTYPE svg PUBLIC "-//W3C//DTD SVG 1.1//EN" "http://www.w3.org/Graphics/SVG/1.1/DTD/svg11.dtd"><svg t="1561213032754" class="icon" viewBox="0 0 1024 1024" version="1.1" xmlns="http://www.w3.org/2000/svg" p-id="19940" xmlns:xlink="http://www.w3.org/1999/xlink" width="200" height="200"><defs><style type="text/css"></style></defs><path d="M193.589959 484.087322c0 4.614638-2.307319 9.229277-2.307319 13.843915 0 11.536596 4.614638 20.765872 16.151234 25.38051l13.843915 6.921958c2.307319 2.307319 4.614638 6.921957 6.921957 9.229276 0 2.307319-2.307319 4.614638-4.614638 4.614639-2.307319 2.307319-6.921957 0-6.921957-4.614639 0-2.307319 0-4.614638-2.30732-6.921957h-23.073191c-4.614638 16.151234 2.307319 27.68783 18.458553 29.995149h23.073192c9.229277 0 18.458553-6.921957 20.765872-16.151234 2.307319-11.536596 2.307319-23.073191-9.229277-32.302468-4.614638-4.614638-11.536596-6.921957-16.151234-9.229277-4.614638-2.307319-6.921957-2.307319-9.229276-4.614638-2.307319-2.307319-2.307319-6.921957-2.307319-9.229276 0 0 4.614638-2.307319 6.921957-2.30732 2.307319 0 4.614638 4.614638 4.614638 4.614639 0 4.614638 2.307319 6.921957 6.921958 6.921957h11.536595c4.614638 0 4.614638-2.307319 4.614639-4.614638 0-13.843915-4.614638-20.765872-20.765873-23.073192-2.307319-2.307319-4.614638-2.307319-9.229276-2.307319 9.229277-4.614638 18.458553-6.921957 25.38051-11.536595 69.219574-27.68783 140.746467-46.146383 214.58068-59.990298 43.839064-9.229277 89.985446-16.151234 133.82451-20.765872 62.297617-6.921957 126.902552-11.536596 189.200169-6.921958 36.917106 2.307319 73.834212 6.921957 108.443999 20.765873 13.843915 4.614638 27.68783 11.536596 39.224426 20.765872 20.765872 13.843915 23.073191 34.609787 11.536595 57.682978-6.921957 9.229277-13.843915 18.458553-23.073191 27.68783-23.073191 20.765872-50.761021 36.917106-80.75617 50.761021V509.467833h-25.38051c-2.307319 0-4.614638 2.307319-4.614638 4.614638 0 4.614638-2.307319 9.229277 2.307319 11.536596h2.307319v11.536595c0 4.614638-2.307319 6.921957-6.921958 6.921958-4.614638 0-6.921957-2.307319-6.921957-6.921958v-13.843915-27.687829c0-4.614638 0-6.921957 4.614638-6.921958s6.921957 0 6.921958 4.614639v6.921957h20.765872c2.307319 0 2.307319-4.614638 2.307319-4.614638 0-16.151234-9.229277-25.38051-25.38051-25.380511-20.765872-2.307319-34.609787 6.921957-34.609787 29.995149v43.839064c0 11.536596 6.921957 18.458553 20.765872 20.765872 0 0 2.307319 0 4.614638 2.307319-6.921957 2.307319-9.229277 4.614638-13.843915 6.921957-78.448851 29.995149-156.897701 53.06834-239.96119 66.912255-41.531744 6.921957-80.75617 13.843915-122.287914 18.458553-59.990298 6.921957-119.980595 9.229277-182.278212 6.921958-39.224425-2.307319-78.448851-6.921957-115.365957-20.765872-11.536596-4.614638-25.38051-9.229277-34.609787-18.458553C71.302045 608.682555 68.994726 585.609364 82.838641 562.536173c9.229277-13.843915 23.073191-25.38051 34.609787-36.917106 23.073191-16.151234 46.146383-29.995149 71.526893-41.531745h4.614638z m246.883148 20.765872c2.307319 0 2.307319 0 0 0v36.917107c0 23.073191-4.614638 18.458553 18.458553 18.458553 6.921957 0 6.921957 0 6.921957-4.614639V477.165365c0-4.614638-2.307319-4.614638-4.614638-4.614639h-27.68783c-4.614638 0-6.921957 2.307319-6.921957 6.921958-4.614638 11.536596-6.921957 23.073191-9.229277 36.917106-2.307319-16.151234-4.614638-29.995149-6.921957-43.839064h-41.531744v71.526894c0 16.151234 0 13.843915 16.151234 16.151234 6.921957 0 9.229277-2.307319 6.921957-6.921958V502.545875c4.614638 13.843915 6.921957 27.68783 9.229276 43.839064 2.307319 16.151234 4.614638 16.151234 18.458554 16.151234 6.921957 0 9.229277-2.307319 9.229276-9.229277 4.614638-16.151234 9.229277-32.302468 11.536596-48.453702z m283.800254 13.843915c0-2.307319-2.307319-2.307319-2.30732-4.614638-4.614638-11.536596-11.536596-25.38051-16.151234-36.917106 0-2.307319-2.307319-4.614638-4.614638-4.614639H673.51234v87.678128h23.073191v-46.146383c2.307319 0 4.614638 2.307319 4.614638 2.307319 6.921957 13.843915 11.536596 25.38051 18.458553 39.224425 0 2.307319 2.307319 4.614638 4.614639 4.614639h25.38051V472.550726h-23.073191c-2.307319 16.151234-2.307319 32.302468-2.307319 46.146383z m-117.673276-46.146383h-18.458554c-6.921957 0-6.921957 2.307319-6.921957 6.921958v53.06834c0 18.458553 9.229277 27.68783 27.68783 29.995149 18.458553 2.307319 39.224425-4.614638 36.917106-32.302468V479.472684v-6.921958h-25.380511V534.848343c0 4.614638 0 6.921957-4.614638 6.921958s-6.921957-2.307319-6.921957-6.921958V495.623918c-2.307319-6.921957-2.307319-13.843915-2.307319-23.073192z m-76.141532 27.68783h18.458553c2.307319 0 4.614638-2.307319 4.614638-2.307319 2.307319-11.536596-2.307319-23.073191-16.151234-25.380511-9.229277-2.307319-18.458553 0-27.687829 0-4.614638 0-9.229277 4.614638-13.843915 6.921958-9.229277 11.536596-4.614638 32.302468 9.229277 41.531744 4.614638 2.307319 11.536596 4.614638 16.151234 6.921958 2.307319 2.307319 6.921957 4.614638 6.921957 6.921957 2.307319 2.307319 2.307319 6.921957-2.307319 9.229277-4.614638 0-6.921957 0-6.921958-4.614639 0-6.921957-4.614638-9.229277-9.229276-6.921957h-13.843915c-2.307319 0-4.614638 2.307319-4.614638 2.307319-2.307319 11.536596 4.614638 23.073191 16.151234 25.380511 11.536596 2.307319 23.073191 2.307319 34.609787 0 9.229277-2.307319 13.843915-9.229277 13.843915-18.458553 2.307319-16.151234-4.614638-29.995149-20.765873-34.609788-2.307319-2.307319-6.921957-2.307319-11.536595-4.614638-2.307319 0-4.614638-2.307319-4.614639-4.614638-2.307319-2.307319-2.307319-4.614638-2.307319-9.229277 0-2.307319 4.614638-2.307319 6.921958-2.307319 2.307319 0 4.614638 2.307319 4.614638 4.614639 2.307319 4.614638 2.307319 6.921957 2.307319 9.229276z m-186.89285 59.990298s0-2.307319 0 0c-4.614638-29.995149-9.229277-57.682978-13.843915-83.063489 0-2.307319-2.307319-2.307319-4.614638-2.307319H295.112001c-4.614638 0-6.921957 2.307319-6.921957 6.921957-2.307319 13.843915-4.614638 29.995149-6.921958 46.146383-2.307319 11.536596-4.614638 20.765872-4.614638 32.302468h23.073191c2.307319 0 2.307319-2.307319 2.30732-4.614639 0-4.614638 0-11.536596 2.307319-18.458553 2.307319-11.536596 4.614638-25.38051 4.614638-36.917106h2.307319c2.307319 20.765872 6.921957 39.224425 9.229277 59.990298h23.073191z" fill="#24408F" p-id="19941"></path></svg>