<?xml version="1.0" standalone="no"?><!DOCTYPE svg PUBLIC "-//W3C//DTD SVG 1.1//EN" "http://www.w3.org/Graphics/SVG/1.1/DTD/svg11.dtd"><svg t="1561212743510" class="icon" viewBox="0 0 1024 1024" version="1.1" xmlns="http://www.w3.org/2000/svg" p-id="15877" xmlns:xlink="http://www.w3.org/1999/xlink" width="200" height="200"><defs><style type="text/css"></style></defs><path d="M512 972.8C257.507 972.8 51.2 766.493 51.2 512 51.2 257.507 257.507 51.2 512 51.2c254.493 0 460.8 206.307 460.8 460.8 0 254.493-206.307 460.8-460.8 460.8z m327.781-387.998H753.44c-27.33-0.058-49.543-20.25-49.591-45.13v-3.82c0.048-24.88 22.26-45.058 49.591-45.117h86.342c27.314 0.06 49.508 20.236 49.567 45.116l0.008 3.821c-0.067 24.88-22.262 45.072-49.575 45.13z m0-122.96H753.44c-45.143 0.017-81.844 33.214-81.844 74.01v3.82c0 40.81 36.702 74.007 81.844 74.023h86.342c45.101-0.016 81.819-33.214 81.819-74.023v-3.82c0-40.797-36.718-73.993-81.819-74.01zM226.432 614.4h0.439c16.881 0.058 30.393-6.834 42.72-22.691l77.859-103.106c1.954-2.587 2.998-5.644 2.996-8.773 0.005-5.093-2.753-9.867-7.389-12.787-2.833-1.77-6.2-2.717-9.648-2.717-5.647 0.004-10.925 2.524-14.097 6.73l-77.844 103.092c-4.735 6.54-9.943 9.228-14.93 9.228l-0.106 0.015c-5.935-0.073-10.253-2.952-15.037-9.243l-77.86-103.092c-3.16-4.211-8.437-6.733-14.082-6.73-3.452 0-6.821 0.948-9.658 2.718-4.64 2.917-7.402 7.692-7.395 12.786-0.008 3.027 0.98 6.084 3.004 8.774l77.852 103.09c10.783 14.314 26.531 22.706 43.176 22.706z m322.265 0h0.367c16.865 0.058 30.375-6.834 42.71-22.691l77.869-103.106c1.948-2.59 2.989-5.645 2.988-8.773 0-4.923-2.58-9.757-7.389-12.787-2.84-1.77-6.211-2.718-9.665-2.717-5.643-0.004-10.918 2.519-14.074 6.73l-77.844 103.09c-4.75 6.541-9.942 9.23-14.922 9.23l-0.13 0.015c-5.927-0.073-10.244-2.968-15.037-9.244l-77.836-103.092c-3.166-4.206-8.443-6.727-14.088-6.73-3.34 0-6.702 0.897-9.657 2.718-4.648 2.912-7.414 7.69-7.403 12.787-0.009 3.026 0.979 6.083 2.995 8.773l77.86 103.09c10.792 14.329 26.524 22.706 43.168 22.706h0.09-0.002zM410.43 427.646l-18.008-16.223c-1.251-1.139-2.947-1.793-4.726-1.823h-0.295c-1.747 0.03-3.47 0.631-4.783 1.823l-18.008 16.223c-2.697 2.432-2.697 6.37 0 8.803l18.008 16.224c1.308 1.165 3.074 1.82 4.914 1.823 1.823-0.005 3.57-0.654 4.867-1.809l18.032-16.238c1.301-1.168 2.03-2.755 2.025-4.409-0.001-1.586-0.679-3.203-2.026-4.394z m-22.897 36.68c-9.486 0-17.192 6.82-17.192 15.299V599.1c0 8.465 7.706 15.284 17.192 15.299 9.461-0.016 17.158-6.834 17.158-15.299l0.017-119.476c0-8.48-7.723-15.299-17.175-15.299z" fill="#4A86C9" p-id="15878"></path></svg>