<?xml version="1.0" standalone="no"?><!DOCTYPE svg PUBLIC "-//W3C//DTD SVG 1.1//EN" "http://www.w3.org/Graphics/SVG/1.1/DTD/svg11.dtd"><svg t="1560952713724" class="icon" style="" viewBox="0 0 1024 1024" version="1.1" xmlns="http://www.w3.org/2000/svg" p-id="31103" xmlns:xlink="http://www.w3.org/1999/xlink" width="200" height="200"><defs><style type="text/css"></style></defs><path d="M678.3980364704861 364.3238218159722c10.792324619791668 0 21.478445142361114 0.7716190538194445 32.08092029513889 1.9191780190972225-28.80365416840278-130.95526515277777-172.19974570138888-228.26381684895833-335.8411953159723-228.26381684895833-182.97233292708336 0-332.859983671875 121.79170489930556-332.859983671875 276.4378281996528 0 89.29443037847223 49.86668552951389 162.58035643402778 133.21185057638888 219.4339040590278L141.69629975520832 731.602137998264l116.34620002256946-56.96633024131945c41.66083477430556 8.079910182291668 75.03687105381945 16.324295281250002 116.59526167187501 16.324295281250002 10.45679718576389 0 20.830887609375004-0.4821440086805556 31.096893965277776-1.2716204861111111-6.550770475694445-21.726566347222228-10.266946800347224-44.504827859375-10.266946800347224-68.08666241319443-0.04323289236111111-141.99853047395834 124.84058629687502-257.2779983229167 282.9303278559028-257.2779983229167z m-178.9638620607639-88.12525404861113c25.067741368055557 0 41.641097380208336 16.0940315 41.641097380208336 40.57624425868056 0 24.35815307465278-16.612829881944446 40.681508829861116-41.641097380208336 40.681508829861116-24.92112479340278 0-49.98886616145834-16.323355755208333-49.98886616145834-40.681508829861116 0-24.44180028125 25.067741368055557-40.57624517708334 49.98886616145834-40.57624425868056z m-232.98093556423612 81.25869261458334c-24.945560736111112 0-50.15897915277778-16.323355755208333-50.15898007118056-40.68150791145833 0-24.44180028125 25.173944546875003-40.57624517708334 50.15898007118056-40.57624517708334 24.941801713541672 0 41.558390618055554 16.0940315 41.558390618055554 40.57624517708334 0 24.35815307465278-16.57335601215278 40.681508829861116-41.558390618055554 40.68150791145833z m715.7680438506945 260.2197360972222c0-129.912968921875-133.16767723958336-235.86158302256945-282.76397480555556-235.86158302256945-158.38297562673614 0-283.1154787743056 105.90726026041668-283.1154787743056 235.86158302256945 0 130.1639096232639 124.73344267361111 235.85970305208338 283.1154787743056 235.85970397048615 33.147652468749996 0 66.58665811631944-8.158857921875 99.87528816666666-16.316776317708335l91.27939909895834 48.80089288194445-25.02826749826389-81.22109963368057c66.85827573784722-48.90427656423611 116.63755503819445-113.8396143420139 116.63755503819445-187.1227209010417z m-374.5602923159722-40.679627940972225c-16.57335601215278 0-33.272652597222226-16.09591147048611-33.272652597222226-32.519831411458334 0-16.17861823263889 16.700236111111114-32.45968062152778 33.272652597222226-32.459679703125 25.170185524305555 0 41.66083477430556 16.32241531076389 41.66083477430556 32.459679703125 0.03947386979166667 16.423919940972223-16.44741635763889 32.51983049305555-41.66083477430556 32.519831411458334z m183.13868689583333 0c-16.49064925 0-33.06494478819445-16.09591147048611-33.06494570659722-32.519831411458334 0-16.17861823263889 16.613769407986112-32.45968062152778 33.06494570659722-32.459679703125 24.922064319444445 0 41.641097380208336 16.32241531076389 41.641097380208336 32.459679703125-0.0009395260416666669 16.423919940972223-16.719973505208333 32.51983049305555-41.641097380208336 32.519831411458334z" fill="#06BB14" p-id="31104"></path></svg>