<?xml version="1.0" standalone="no"?><!DOCTYPE svg PUBLIC "-//W3C//DTD SVG 1.1//EN" "http://www.w3.org/Graphics/SVG/1.1/DTD/svg11.dtd"><svg t="1579183732736" class="icon" viewBox="0 0 1024 1024" version="1.1" xmlns="http://www.w3.org/2000/svg" p-id="5676" xmlns:xlink="http://www.w3.org/1999/xlink" width="200" height="200"><defs><style type="text/css"></style></defs><path d="M169.264 660.416l218.89-163.857 124.178 89.352 198.689-224.688 149.013 199.849v99.345h-690.77z m4.365 0" fill="#2EB3E1" p-id="5677"></path><path d="M363.319 337.551c0 27.432 22.237 49.669 49.672 49.669 27.43 0 49.668-22.238 49.668-49.669 0-27.433-22.238-49.67-49.668-49.67-27.434 0-49.672 22.238-49.672 49.67z m0 0" fill="#FF71A5" p-id="5678"></path><path d="M854.846 306.992H637.871V100.933H204.48c-14.902 0-30.292 15.39-30.292 30.291v771.271c0 14.9 9.933 24.834 24.834 24.834h632.076c14.905 0 24.839-9.934 24.839-24.834l-1.091-595.503z m-39.027-34.391L674.446 131.224v141.377h141.373zM214.303 64.356h442.079l228.491 228.491V883.94c0 42.22-32.287 74.506-74.511 74.506h-596.06c-42.221 0-74.507-32.286-74.507-74.506V138.863c0-42.219 32.287-74.507 74.508-74.507z m0 0" fill="#6F6F6F" p-id="5679"></path><path d="M139.795 660.416v248.358c0 27.319 22.353 49.672 49.673 49.672H835.2c27.319 0 49.673-22.353 49.673-49.672V660.416H139.795z m0 0" fill="#1065B7" p-id="5680"></path><path d="M299.416 890.793V729.939h52.372c20.574 0 31.796 0 39.277 1.868 9.353 1.871 16.834 7.481 22.447 14.965 5.609 7.481 9.353 18.703 9.353 31.797 0 9.354-1.873 18.703-5.612 24.315-3.741 5.608-9.354 13.093-14.963 16.834-5.613 3.74-11.225 5.609-16.834 7.481-7.485 1.868-18.706 1.868-33.668 1.868h-20.575v61.725h-31.797z m31.797-132.799v44.891h16.834c13.094 0 20.575 0 26.185-1.872 5.611-1.869 7.483-3.74 9.353-7.481 1.872-3.74 3.74-7.481 3.74-13.094 0-5.608-1.869-11.222-5.609-14.962-3.744-3.74-5.612-5.612-11.225-7.481-3.741 0-11.222-1.872-22.444-1.872h-16.834v1.871z m117.836 132.799V729.939h31.797l65.464 106.613V729.939h29.928v160.854h-31.797L478.977 786.05v104.743h-29.928z m235.673-59.853v-26.187h69.205v63.596c-7.481 7.481-16.831 13.093-29.925 16.834-13.094 3.74-26.187 7.481-39.28 7.481-16.83 0-31.797-3.741-43.019-11.223-11.222-7.484-22.446-16.833-28.056-29.928-5.612-13.093-9.353-28.056-9.353-43.021 0-16.83 3.74-31.796 11.221-44.89 7.484-13.091 16.835-22.443 29.928-29.925 11.223-5.612 22.448-7.48 39.278-7.48 20.575 0 35.541 3.741 46.762 13.091 11.223 7.483 18.703 20.574 22.443 35.54l-31.796 5.608c-1.868-7.481-5.609-14.962-13.094-18.702-7.481-3.741-14.963-7.481-24.315-7.481-14.962 0-26.185 3.74-33.665 13.094-7.484 9.35-13.094 24.315-13.094 41.146 0 18.707 3.74 33.669 13.094 43.021 9.35 9.354 18.703 14.963 33.665 14.963 7.484 0 13.094-1.868 20.575-3.74 7.484-1.868 13.094-5.609 16.834-9.35v-20.575h-37.409v-1.872z m0 0" fill="#FFFFFF" p-id="5681"></path></svg>